<svg width="43" height="41" viewBox="0 0 43 41" fill="none" xmlns="http://www.w3.org/2000/svg">
<path d="M5.33334 31L6.50001 32.2083L3.54167 35.1667H13.6667V36.8333H3.54167L6.50001 39.7917L5.33334 41L0.33334 36L5.33334 31Z" fill="#6344BD"/>
<path d="M28 19.5C26.75 19.5 25.6875 19.0625 24.8125 18.1875C23.9375 17.3125 23.5 16.25 23.5 15C23.5 13.75 23.9375 12.6875 24.8125 11.8125C25.6875 10.9375 26.75 10.5 28 10.5C29.25 10.5 30.3125 10.9375 31.1875 11.8125C32.0625 12.6875 32.5 13.75 32.5 15C32.5 16.25 32.0625 17.3125 31.1875 18.1875C30.3125 19.0625 29.25 19.5 28 19.5ZM17.5 24C16.675 24 15.9687 23.7063 15.3812 23.1188C14.7937 22.5312 14.5 21.825 14.5 21V9C14.5 8.175 14.7937 7.46875 15.3812 6.88125C15.9687 6.29375 16.675 6 17.5 6H38.5C39.325 6 40.0312 6.29375 40.6187 6.88125C41.2062 7.46875 41.5 8.175 41.5 9V21C41.5 21.825 41.2062 22.5312 40.6187 23.1188C40.0312 23.7063 39.325 24 38.5 24H17.5ZM20.5 21H35.5C35.5 20.175 35.7937 19.4688 36.3812 18.8813C36.9687 18.2938 37.675 18 38.5 18V12C37.675 12 36.9687 11.7063 36.3812 11.1188C35.7937 10.5312 35.5 9.825 35.5 9H20.5C20.5 9.825 20.2062 10.5312 19.6187 11.1188C19.0312 11.7063 18.325 12 17.5 12V18C18.325 18 19.0312 18.2938 19.6187 18.8813C20.2062 19.4688 20.5 20.175 20.5 21ZM37 30H11.5C10.675 30 9.96874 29.7063 9.38124 29.1188C8.79374 28.5312 8.49999 27.825 8.49999 27V10.5H11.5V27H37V30Z" fill="#6344BD"/>
</svg>
