<svg width="36" height="36" viewBox="0 0 36 36" fill="none" xmlns="http://www.w3.org/2000/svg">
<path d="M16.5 31.5V28.5H28.5V17.85C28.5 14.925 27.4812 12.4438 25.4437 10.4062C23.4062 8.36875 20.925 7.35 18 7.35C15.075 7.35 12.5937 8.36875 10.5562 10.4062C8.51875 12.4438 7.5 14.925 7.5 17.85V27H6C5.175 27 4.46875 26.7063 3.88125 26.1188C3.29375 25.5312 3 24.825 3 24V21C3 20.475 3.13125 19.9813 3.39375 19.5188C3.65625 19.0563 4.025 18.6875 4.5 18.4125L4.6125 16.425C4.8125 14.725 5.30625 13.15 6.09375 11.7C6.88125 10.25 7.86875 8.9875 9.05625 7.9125C10.2437 6.8375 11.6062 6 13.1437 5.4C14.6812 4.8 16.3 4.5 18 4.5C19.7 4.5 21.3125 4.8 22.8375 5.4C24.3625 6 25.725 6.83125 26.925 7.89375C28.125 8.95625 29.1125 10.2125 29.8875 11.6625C30.6625 13.1125 31.1625 14.6875 31.3875 16.3875L31.5 18.3375C31.975 18.5625 32.3437 18.9 32.6062 19.35C32.8687 19.8 33 20.275 33 20.775V24.225C33 24.725 32.8687 25.2 32.6062 25.65C32.3437 26.1 31.975 26.4375 31.5 26.6625V28.5C31.5 29.325 31.2062 30.0313 30.6187 30.6188C30.0312 31.2063 29.325 31.5 28.5 31.5H16.5ZM13.5 21C13.075 21 12.7187 20.8563 12.4312 20.5688C12.1437 20.2813 12 19.925 12 19.5C12 19.075 12.1437 18.7188 12.4312 18.4313C12.7187 18.1438 13.075 18 13.5 18C13.925 18 14.2812 18.1438 14.5687 18.4313C14.8562 18.7188 15 19.075 15 19.5C15 19.925 14.8562 20.2813 14.5687 20.5688C14.2812 20.8563 13.925 21 13.5 21ZM22.5 21C22.075 21 21.7187 20.8563 21.4312 20.5688C21.1437 20.2813 21 19.925 21 19.5C21 19.075 21.1437 18.7188 21.4312 18.4313C21.7187 18.1438 22.075 18 22.5 18C22.925 18 23.2812 18.1438 23.5687 18.4313C23.8562 18.7188 24 19.075 24 19.5C24 19.925 23.8562 20.2813 23.5687 20.5688C23.2812 20.8563 22.925 21 22.5 21ZM9.0375 18.675C8.8625 16.025 9.6625 13.75 11.4375 11.85C13.2125 9.95 15.425 9 18.075 9C20.3 9 22.2562 9.70625 23.9437 11.1188C25.6312 12.5312 26.65 14.3375 27 16.5375C24.725 16.5125 22.6312 15.9 20.7187 14.7C18.8062 13.5 17.3375 11.875 16.3125 9.825C15.9125 11.825 15.0687 13.6063 13.7812 15.1688C12.4937 16.7313 10.9125 17.9 9.0375 18.675Z" fill="#6344BD"/>
</svg>
